<svg width="25" height="25" viewBox="0 0 25 25" fill="none" xmlns="http://www.w3.org/2000/svg">
<path d="M10 11.25C10.9946 11.25 11.9484 10.8549 12.6517 10.1517C13.3549 9.44839 13.75 8.49456 13.75 7.5C13.75 6.50544 13.3549 5.55161 12.6517 4.84835C11.9484 4.14509 10.9946 3.75 10 3.75C9.00544 3.75 8.05161 4.14509 7.34835 4.84835C6.64509 5.55161 6.25 6.50544 6.25 7.5C6.25 8.49456 6.64509 9.44839 7.34835 10.1517C8.05161 10.8549 9.00544 11.25 10 11.25ZM10 13.75C11.9891 13.75 13.8968 14.5402 15.3033 15.9467C16.7098 17.3532 17.5 19.2609 17.5 21.25H2.5C2.5 19.2609 3.29018 17.3532 4.6967 15.9467C6.10322 14.5402 8.01088 13.75 10 13.75ZM20 8.75C20 8.41848 19.8683 8.10054 19.6339 7.86612C19.3995 7.6317 19.0815 7.5 18.75 7.5C18.4185 7.5 18.1005 7.6317 17.8661 7.86612C17.6317 8.10054 17.5 8.41848 17.5 8.75V10H16.25C15.9185 10 15.6005 10.1317 15.3661 10.3661C15.1317 10.6005 15 10.9185 15 11.25C15 11.5815 15.1317 11.8995 15.3661 12.1339C15.6005 12.3683 15.9185 12.5 16.25 12.5H17.5V13.75C17.5 14.0815 17.6317 14.3995 17.8661 14.6339C18.1005 14.8683 18.4185 15 18.75 15C19.0815 15 19.3995 14.8683 19.6339 14.6339C19.8683 14.3995 20 14.0815 20 13.75V12.5H21.25C21.5815 12.5 21.8995 12.3683 22.1339 12.1339C22.3683 11.8995 22.5 11.5815 22.5 11.25C22.5 10.9185 22.3683 10.6005 22.1339 10.3661C21.8995 10.1317 21.5815 10 21.25 10H20V8.75Z" fill="white"/>
</svg>
